# xmcd
#
# Track frame offsets:
#	150
#	15975
#	32049
#	43219
#	64723
#	81030
#	97366
#	112592
#	128341
#	146444
#	159721
#
# Disc length: 2397 seconds
# Revision: 0
# Processed by: cddbd v1.5.2PL0 Copyright (c) Steve Scherf et al.
# Submitted via: dBpowerAMP V12.0
#
DISCID=84095b0b
DTITLE=Bill Lawrie and Paul Gioia - Dead Cat Blues
DYEAR=2015
DGENRE=Blues Acoustic
TTITLE0=Mountain Blues
TTITLE1=Papa's On The Housetop
TTITLE2=Baby, Look At You
TTITLE3=It Hurts Me Too
TTITLE4=Dead Cat On The Line
TTITLE5=Pneumonia Blues
TTITLE6=Sporting Life Blues
TTITLE7=Sittin' On Top Of The World
TTITLE8=Policy Blues
TTITLE9=Someday, Baby
TTITLE10=Never Drive A Stranger From Your Door
EXTD=
EXTT0=
EXTT1=
EXTT2=
EXTT3=
EXTT4=
EXTT5=
EXTT6=
EXTT7=
EXTT8=
EXTT9=
EXTT10=
PLAYORDER=
